<?xml version="1.0" encoding="utf-8"?>
<!-- Generator: Adobe Illustrator 26.0.3, SVG Export Plug-In . SVG Version: 6.00 Build 0)  -->
<svg version="1.1" id="Calque_1" xmlns="http://www.w3.org/2000/svg" xmlns:xlink="http://www.w3.org/1999/xlink" x="0px" y="0px"
	 viewBox="0 0 40 40" style="enable-background:new 0 0 40 40;" xml:space="preserve">
<style type="text/css">
	.st0{fill-rule:evenodd;clip-rule:evenodd;fill:#323442;}
	.st1{fill-rule:evenodd;clip-rule:evenodd;fill:#EBEBC4;}
	.st2{fill-rule:evenodd;clip-rule:evenodd;fill:#E4AC3E;}
	.st3{fill-rule:evenodd;clip-rule:evenodd;fill:#D69F30;}
</style>
<g>
	<polygon class="st0" points="28.1,29.1 11.9,29.1 11.9,30.5 9.6,30.5 9.6,39.8 30.4,39.8 30.4,30.5 28.1,30.5 	"/>
	<rect x="14" y="32.5" class="st1" width="12" height="5.3"/>
	<path class="st2" d="M32.6,1.9V0.2H7.4v1.7H2.6C2.1,3.3,1.9,4.7,1.9,6.2c0,5.1,2.9,9.6,7.1,11.9c1.8,3.2,4.9,5.6,8.6,6.3v4.7h4.8
		v-4.7c3.7-0.7,6.8-3.1,8.6-6.3c4.2-2.3,7.1-6.8,7.1-11.9c0-1.5-0.2-2.9-0.7-4.3H32.6z M4.3,6.2c0-0.7,0.1-1.3,0.2-1.9h3v7.8
		c0,0.7,0.1,1.4,0.2,2C5.5,12.1,4.3,9.3,4.3,6.2z M32.4,14.1c0.1-0.7,0.2-1.3,0.2-2V4.3h3c0.1,0.6,0.2,1.2,0.2,1.9
		C35.7,9.3,34.5,12.1,32.4,14.1z"/>
	<path class="st3" d="M32.6,1.9V0.2H20v28.9h2.4v-4.7c3.7-0.7,6.8-3.1,8.6-6.3c4.2-2.3,7.1-6.8,7.1-11.9c0-1.5-0.2-2.9-0.7-4.3H32.6
		z M32.4,14.1c0.1-0.7,0.2-1.3,0.2-2V4.3h3c0.1,0.6,0.2,1.2,0.2,1.9C35.7,9.3,34.5,12.1,32.4,14.1z"/>
</g>
</svg>
